<?xml version="1.0" encoding="UTF-8" standalone="no"?>
<!DOCTYPE svg PUBLIC "-//W3C//DTD SVG 1.1//EN" "http://www.w3.org/Graphics/SVG/1.1/DTD/svg11.dtd">
<svg version="1.1" xmlns="http://www.w3.org/2000/svg" xmlns:xlink="http://www.w3.org/1999/xlink" preserveAspectRatio="xMidYMid meet" width="171.04" height="66.92" viewBox="0 0 171.04 66.92"><defs><path d="M0 0L171.04 0L171.04 66.92L0 66.92L0 0Z" id="cjwcuouHY"/><path d="M40 46.92C40 57.96 31.04 66.92 20 66.92C8.96 66.92 0 57.96 0 46.92C0 35.88 8.96 26.92 20 26.92C31.04 26.92 40 35.88 40 46.92Z" id="bwFJicp8D"/><clipPath id="clipa1jW3Duij"><use xlink:href="#bwFJicp8D" opacity="1"/></clipPath><path d="M83.89 46.92C83.89 57.96 74.93 66.92 63.89 66.92C52.85 66.92 43.89 57.96 43.89 46.92C43.89 35.88 52.85 26.92 63.89 26.92C74.93 26.92 83.89 35.88 83.89 46.92Z" id="caXGGvNMz"/><clipPath id="clipaa8OwUZ4c"><use xlink:href="#caXGGvNMz" opacity="1"/></clipPath><path d="M127.66 46.92C127.66 57.96 118.7 66.92 107.66 66.92C96.62 66.92 87.66 57.96 87.66 46.92C87.66 35.88 96.62 26.92 107.66 26.92C118.7 26.92 127.66 35.88 127.66 46.92Z" id="ocD8r9Fth"/><clipPath id="clipdlSrSWPVJ"><use xlink:href="#ocD8r9Fth" opacity="1"/></clipPath><path d="M171.04 46.92C171.04 57.96 162.08 66.92 151.04 66.92C140 66.92 131.04 57.96 131.04 46.92C131.04 35.88 140 26.92 151.04 26.92C162.08 26.92 171.04 35.88 171.04 46.92Z" id="cwuOiQY7F"/><clipPath id="clipffDAH66O1"><use xlink:href="#cwuOiQY7F" opacity="1"/></clipPath><path d="M0 6.92L36 6.92L36 46.92L0 46.92L0 6.92Z" id="aHaXHxYR4"/><path d="M167.04 0L171.04 0L171.04 46.92L167.04 46.92L167.04 0Z" id="e1DQD8O6WH"/><path d="M36 0L40 0L40 46.92L36 46.92L36 0Z" id="a1ZO5CjWvV"/></defs><g><g><g><use xlink:href="#cjwcuouHY" opacity="1" fill="#ffffff" fill-opacity="1"/></g><g><g clip-path="url(#clipa1jW3Duij)"><use xlink:href="#bwFJicp8D" opacity="1" fill-opacity="0" stroke="#1d468a" stroke-width="8" stroke-opacity="1"/></g></g><g><g clip-path="url(#clipaa8OwUZ4c)"><use xlink:href="#caXGGvNMz" opacity="1" fill-opacity="0" stroke="#354e33" stroke-width="8" stroke-opacity="1"/></g></g><g><g clip-path="url(#clipdlSrSWPVJ)"><use xlink:href="#ocD8r9Fth" opacity="1" fill-opacity="0" stroke="#e77f1e" stroke-width="8" stroke-opacity="1"/></g></g><g><g clip-path="url(#clipffDAH66O1)"><use xlink:href="#cwuOiQY7F" opacity="1" fill-opacity="0" stroke="#374148" stroke-width="8" stroke-opacity="1"/></g></g><g><use xlink:href="#aHaXHxYR4" opacity="1" fill="#ffffff" fill-opacity="1"/></g><g><use xlink:href="#e1DQD8O6WH" opacity="1" fill="#374148" fill-opacity="1"/></g><g><use xlink:href="#a1ZO5CjWvV" opacity="1" fill="#1d468a" fill-opacity="1"/></g></g></g></svg>